<svg width="1641" height="1641" viewBox="0 0 1641 1641" fill="none" xmlns="http://www.w3.org/2000/svg">
<path d="M1282.03 684.863C1228.88 680.564 1177.38 664.378 1131.33 637.502C1085.28 610.625 1045.85 573.745 1015.97 529.585C986.089 485.426 966.511 435.116 958.684 382.374C950.856 329.632 954.98 275.804 970.75 224.87C971.554 221.971 971.49 218.899 970.566 216.036C969.642 213.173 967.899 210.643 965.552 208.76C963.206 206.877 960.358 205.724 957.363 205.443C954.367 205.161 951.355 205.765 948.699 207.178C901.006 234.217 860.204 271.91 829.477 317.315C798.75 362.721 778.929 414.611 771.56 468.939C764.19 523.267 769.472 578.562 786.994 630.512C804.515 682.462 833.801 729.662 872.568 768.429C911.336 807.196 958.535 836.483 1010.49 854.004C1062.44 871.525 1117.73 876.807 1172.06 869.438C1226.39 862.069 1278.28 842.247 1323.68 811.521C1369.09 780.794 1406.78 739.992 1433.82 692.299C1435.49 689.629 1436.3 686.513 1436.14 683.369C1435.98 680.225 1434.86 677.206 1432.93 674.718C1431 672.23 1428.36 670.394 1425.35 669.457C1422.35 668.52 1419.13 668.528 1416.13 669.478C1372.81 683.095 1327.3 688.317 1282.03 684.863V684.863Z" fill="#EFCC00"/>
<path d="M606.654 561.53C688.256 561.505 768.318 583.745 838.216 625.855C908.113 667.965 965.196 728.349 1003.31 800.501C1050.13 773.128 1102.64 756.925 1156.74 753.154C1210.85 749.383 1265.09 758.145 1315.26 778.759C1365.42 799.372 1410.15 831.281 1445.97 872.003C1481.79 912.725 1507.74 961.163 1521.78 1013.55C1535.83 1065.93 1537.6 1120.85 1526.96 1174.03C1516.32 1227.21 1493.55 1277.22 1460.43 1320.17C1427.31 1363.11 1384.73 1397.84 1336 1421.64C1287.27 1445.45 1233.7 1457.69 1179.47 1457.41L605.372 1458.95C486.366 1458.95 372.235 1411.68 288.085 1327.53C203.935 1243.38 156.661 1129.25 156.661 1010.24C156.661 891.236 203.935 777.104 288.085 692.955C372.235 608.805 486.366 561.53 605.372 561.53H606.654Z" fill="url(#paint0_linear_351_3)"/>
<path d="M1520.36 1199.81C1572.76 1012.28 1463.21 817.784 1275.68 765.389C1088.15 712.994 893.647 822.543 841.252 1010.07C788.857 1197.61 898.407 1392.1 1085.94 1444.5C1273.47 1496.89 1467.97 1387.34 1520.36 1199.81Z" fill="url(#paint1_linear_351_3)"/>
<defs>
<linearGradient id="paint0_linear_351_3" x1="493.578" y1="1497.16" x2="1034.34" y2="796.911" gradientUnits="userSpaceOnUse">
<stop stop-color="#F2F2F2"/>
<stop offset="1" stop-color="#CFCFCF"/>
</linearGradient>
<linearGradient id="paint1_linear_351_3" x1="1324.97" y1="979.63" x2="916.308" y2="1335.07" gradientUnits="userSpaceOnUse">
<stop offset="0.02" stop-color="white"/>
<stop offset="1" stop-color="white" stop-opacity="0"/>
</linearGradient>
</defs>
</svg>
